<svg width="792" height="792" viewBox="0 0 792 792" fill="none" xmlns="http://www.w3.org/2000/svg">
<rect width="792" height="792" fill="white"/>
<path d="M572 441V292C564.8 244.4 526 229.167 507.5 227.5H398.5H390.5C367 235.5 322.7 264.2 333.5 315C344.3 365.8 387.333 378.167 407.5 378V390C347.1 387.2 324 338.833 320 315V302.5C319.2 282.1 328.333 263.333 333 256.5H256.5C191.3 264.5 166.333 318.5 162 344.5V559.5C162.8 569.5 171 572.333 175 572.5H216.5C229.3 573.3 232.167 562.5 232 557V496.5C238.4 476.5 253.667 470.5 260.5 470H368.5C386.9 474.4 394.167 491.167 395.5 499C394.833 516.333 394.1 552.9 396.5 560.5C398.9 568.1 404.5 571.333 407 572H452C461.2 572 465.167 564 466 560V389.5L540 337.5C540.167 367.833 540.4 431 540 441C539.6 451 542.5 458.833 544 461.5C549.333 471.167 566.9 489.3 594.5 484.5C622.1 479.7 629 453.5 629 441H596.5C596.833 444.5 595 451.7 585 452.5C575 453.3 572.167 445.167 572 441Z" fill="#FD66FF" stroke="#FD66FF"/>
<path d="M416.5 222.5C416.5 220.5 415.167 220 414.5 220H401.5C400.3 220 399.667 221.667 399.5 222.5V251.5C381.9 253.9 368.833 267.167 364.5 273.5C360.667 279 354.1 295.5 358.5 317.5C362.9 339.5 385.667 351.333 396.5 354.5H421.5C446.7 346.9 457.333 324 459.5 313.5C459.5 313.5 460.5 309 460.5 303.5C460.5 294.5 459.5 292 459.5 292C455.1 265.2 429 253.833 416.5 251.5V222.5Z" fill="#9A3C9A" stroke="#9A3C9A"/>
<circle cx="519" cy="278.5" r="9" fill="white"/>
</svg>
